PathFileType	4	(X/Y/Z)	C:/Users/beibeiliu/ov580/test_trc/User1\sequence.21_training_dense_right.trc
DataRate	CameraRate	NumFrames	NumMarkers	Units	OrigDataRate	OrigDataStartFrame	OrigNumFrames
120	120	23	19	mm	120	176	280
Frame#	Time	ThumbCMC			ThumbMCP			ThumbIP			ThumbTip			IndexMCP			IndexPIP			IndexTip			MiddleMCP			MiddlePIP			MiddleTip			RingMCP			RingPIP			RingTip			PinkyMCP			PinkyPIP			PinkyTip			BackHand1			BackHand2			BackHand3	
		X0	Y0	Z0	X1	Y1	Z1	X2	Y2	Z2	X3	Y3	Z3	X4	Y4	Z4	X5	Y5	Z5	X6	Y6	Z6	X7	Y7	Z7	X8	Y8	Z8	X9	Y9	Z9	X10	Y10	Z10	X11	Y11	Z11	X12	Y12	Z12	X13	Y13	Z13	X14	Y14	Z14	X15	Y15	Z15	X16	Y16	Z16	X17	Y17	Z17	X18	Y18	Z18	
175	1.45833	120.691	51.4635	64.7835	118.276	57.4165	25.209	136.195	62.8751	0.61243	163.306	53.1546	-3.56433	149.079	111.88	12.3913	157.542	127.017	-8.66094	167.332	140.072	-33.211	173.674	113.122	9.68826	180.765	131.168	-16.2672	191.843	140.304	-38.4814	193.584	100.479	11.6697	197.834	117.696	-9.54618	202.835	127.7	-28.757	206.312	78.3133	19.0886	206.939	90.8528	4.72129	212.651	109.18	-7.74076	187.906	71.7376	62.7986	181.443	56.4035	90.212	152.913	78.3874	75.8695	
176	1.46667	122.784	49.9102	64.989	119.999	56.179	25.6441	139.455	61.7172	-0.380288	167.609	51.8744	-1.42294	154.161	110.941	10.8881	159.002	126.31	-9.45607	169.029	136.255	-30.8082	179.108	112.462	7.49963	184.183	127.661	-15.4096	195.629	139.134	-39.7099	192.86	100.343	11.4649	198.145	113.596	-6.26348	207.62	127.844	-30.4024	207.037	74.904	21.2125	213.98	85.6405	7.06309	216.88	104.176	-7.14964	188.65	71.5877	58.0244	183.9	55.8739	91.5491	153.25	75.0987	74.1723	
177	1.475	121.955	48.9081	65.4905	119.557	53.9317	24.1072	144.311	59.8909	3.25474	170.553	48.9157	-7.59098	152.942	111.497	10.354	166.121	123.74	-11.8062	174.747	133.274	-32.0027	181.797	107.399	10.4354	186.003	126.006	-16.4566	198.469	138.992	-42.1283	200.442	94.1433	13.014	205.511	110.475	-6.91201	210.179	123.611	-29.487	211.211	68.9445	22.1889	212.13	83.0285	8.66404	215.318	103.483	-9.77704	188.644	67.6854	63.136	186.857	53.6696	92.2509	154.135	74.9515	77.1974	
178	1.48333	126.492	48.7998	66.4126	124.505	55.5692	23.3149	143.234	58.5835	-1.26022	173.151	47.4022	-7.00399	156.505	107.212	11.7939	168.672	120.322	-10.0014	179.483	131.457	-33.673	184.504	105.298	9.22937	190.666	120.809	-13.957	202.979	134.813	-44.1226	200.966	93.7874	11.264	211.13	106.362	-7.55984	215.786	118.213	-29.9949	209.876	66.1466	23.2857	215.137	80.3824	7.9289	221.584	98.3209	-6.96568	190.852	65.1259	59.8869	190.178	52.672	89.8251	160.075	72.32	74.2382	
179	1.49167	127.988	51.6631	63.7345	126.745	53.5373	25.0144	145.313	54.3588	3.55764	173.478	44.3505	-3.48338	166.284	106.957	7.89725	171.125	119.233	-12.7927	186.315	124.051	-32.1056	189.375	102.86	9.78797	199.069	115.177	-14.0152	209.198	127.486	-41.3802	208.116	88.4696	12.4333	212.219	105.709	-9.52246	219.635	116.645	-33.0646	213.136	65.8599	19.9693	218.317	76.816	7.37783	225.933	95.9469	-9.96238	195.719	61.5668	60.6261	191.785	48.1249	90.803	161.79	72.3304	75.3466	
180	1.5	131.155	49.4178	63.9522	126.269	50.7338	23.7012	150.687	52.4804	1.2581	177.779	39.0591	-7.3259	168.665	101.419	10.7302	180.777	115.104	-13.6259	190.496	124.912	-34.3366	194.27	100.59	6.75627	201.688	113.712	-16.5648	215.181	124.046	-42.8921	206.752	85.8601	12.9656	219.804	102.148	-11.4743	224.78	111.162	-30.7874	216.222	58.9078	23.349	223.805	73.2392	6.51791	230.893	89.4512	-10.8497	200.605	61.7114	58.5306	193.155	47.1437	93.4041	164.595	71.2799	76.0215	
181	1.50833	131.857	49.8191	61.3354	130.34	51.2167	21.4019	150.65	49.5704	0.529157	178.857	36.9314	-3.98427	170.745	101.082	8.53319	184.237	112.652	-15.1278	196.185	119.081	-34.7634	198.968	95.5743	8.5859	208.239	109.357	-16.8864	218.007	121.901	-44.1062	214.901	80.0683	14.0744	224.754	95.9394	-10.0329	227.091	108.165	-31.3765	222.015	57.0509	21.5109	226.395	69.6332	4.75459	232.331	85.7841	-8.31456	196.491	59.3548	61.9681	191.999	47.9141	90.8844	165.925	67.476	74.0569	
182	1.51667	130.843	48.9249	62.0373	131.046	48.5125	23.2784	157.542	49.8195	-2.57771	184.714	33.9915	-2.83075	175.632	101.036	6.28537	189.443	109.144	-13.6604	202.424	113.738	-33.9085	200.296	92.922	8.98083	213.096	103.291	-14.6023	222.797	118.242	-44.2859	214.041	78.0114	15.4742	228.092	93.1827	-8.55592	236.6	102.288	-31.7221	224.03	55.3516	22.4659	228.287	66.4484	5.34745	234.437	82.2616	-8.29056	200.951	59.3193	60.1684	194.919	42.3901	92.5248	166.608	69.327	74.8962	
183	1.525	135.702	45.5198	62.8283	134.885	47.4687	22.1661	156.239	47.426	-1.40027	185.859	31.8673	-3.66028	178.436	94.3416	10.7182	188.794	107.12	-12.8766	201.825	114.037	-33.3339	205.746	89.0868	9.09127	216.996	102.801	-16.3032	229.119	111.571	-43.8949	220.014	77.4926	12.6997	229.877	91.0077	-9.65554	236.765	99.8745	-30.4826	226.972	48.4692	24.9429	233.649	61.9348	7.08137	237.784	81.0022	-12.0064	203.052	55.7167	61.9162	195.3	40.6382	93.678	167.726	67.1439	73.1527	
184	1.53333	135.418	47.0827	61.4537	138.158	47.9769	23.5479	159.516	46.1874	-0.158568	185.198	31.6173	-0.618402	179.152	95.3092	7.95208	193.671	105.863	-13.9709	207.422	110.215	-33.3105	208.257	88.8448	7.9806	219.017	97.911	-13.6905	231.833	110.728	-43.5648	219.446	72.8309	14.6536	229.377	88.4606	-8.30787	241.176	96.6149	-30.6368	225.173	47.3304	25.6435	238.509	58.2959	8.84274	244.92	74.1386	-7.92904	202.052	52.6984	62.2092	194.328	42.8295	91.8195	169.496	63.63	73.5375	
185	1.54167	137.726	43.7593	64.0726	134.99	45.4564	23.1065	159.738	43.435	3.33408	186.495	28.649	-1.26633	183.61	93.5036	7.17309	195.091	102.488	-10.9993	213.341	108.479	-36.1359	208.539	89.701	6.87238	222.699	97.5654	-16.5044	233.221	105.739	-40.9136	224.194	71.975	12.3695	234.575	81.731	-4.60281	241.548	94.2321	-28.7993	226.274	44.7629	27.1006	238.295	57.4114	8.64827	247.133	70.3026	-6.01285	204.947	52.0294	61.0219	196.309	36.7438	95.1975	170.427	62.5348	76.1248	
186	1.55	138.995	43.5411	65.1027	138.427	45.8776	22.6599	164.22	43.1725	2.33622	188.718	27.0289	-2.43556	184.783	91.0468	9.91418	198.909	101.284	-13.4029	215.323	105.584	-34.9752	211.074	85.3424	10.2404	222.845	95.9069	-12.2602	238.69	105.352	-42.113	228.524	68.3476	14.6304	238.125	78.8028	-5.25924	245.752	90.1498	-27.6989	233.991	42.203	26.3317	238.029	54.1705	9.46413	247.337	69.5712	-4.7234	206.227	48.3959	63.909	200.381	36.7118	95.2566	175.47	64.7311	72.8351	
187	1.55833	141.085	43.6612	66.1208	143.525	45.6635	24.6081	162.817	40.9152	1.50861	189.613	24.1712	-4.40402	191.966	87.2236	11.7496	204.535	100.738	-13.6465	221.1	101.613	-32.4696	216.255	81.2474	10.8094	228.607	94.5009	-16.2058	244.197	99.8274	-42.0074	230.234	66.2399	15.5461	239.302	76.8159	-3.53153	251.995	87.0532	-28.1894	236.377	39.1114	25.7895	245.535	49.2188	9.11949	253.841	66.0286	-7.11953	212.125	44.5995	66.4104	202.115	36.3444	93.8813	178.397	62.5389	73.4465	
188	1.56667	144.145	43.8468	66.3338	141.75	45.4343	22.9747	168.272	41.0197	1.86716	191.734	22.5916	-3.80169	195.452	88.5811	10.6935	210.764	95.5232	-12.5311	226.03	97.766	-31.8506	221.066	81.3366	10.2606	235.448	86.384	-10.7494	250.04	95.3781	-41.8201	231.304	62.8282	17.7535	245.722	72.4818	-1.93645	257.993	81.1229	-25.8288	233.102	36.3431	28.3953	244.129	47.7382	9.77732	253.735	63.3659	-8.4849	212.07	40.8578	67.5713	203.011	36.1572	94.2333	183.058	58.6603	78.7128	
189	1.575	143.925	47.8498	62.3633	147.431	47.1499	21.5868	172.187	40.3394	-1.04996	195.354	21.3804	-0.179735	197.286	85.03	12.2147	213.507	95.3555	-12.4286	227.32	97.4129	-31.9863	224.588	78.8183	10.9996	238.221	88.9157	-14.5369	252.004	93.325	-38.2334	236.065	61.7777	16.3685	247.587	72.0389	-3.00618	261.888	75.8769	-24.2211	237.33	30.8584	30.6467	244.872	45.3457	9.13687	253.813	56.9941	-7.55864	215.393	40.6809	67.9976	202.46	34.2788	96.5655	181.483	60.4399	76.116	
190	1.58333	144.547	45.596	64.9296	149.783	46.9309	21.9934	171.619	39.6549	1.18511	198.964	20.5696	0.482677	200.471	86.5935	10.6784	216.387	93.4931	-10.733	233.747	95.7136	-32.4054	225.484	75.4356	13.2901	243.125	84.229	-13.6546	258.822	89.4367	-39.3963	237.984	60.2008	16.003	250.271	69.2763	-2.28225	265.279	76.9068	-26.0797	234.767	32.4857	31.1971	246.742	43.0207	11.2932	256.288	54.1717	-7.88023	217.158	40.4634	65.4956	202.155	32.7694	98.2906	181.872	61.82	75.7507	
191	1.59167	148.923	48.3653	61.0824	148.905	46.0613	24.4947	175.392	40.6998	-1.09671	196.49	21.4257	-2.93677	205.736	85.2157	9.15467	218.642	92.5985	-9.89781	232.367	95.7923	-29.5973	230.423	76.6961	9.53922	243.383	83.6938	-11.0684	257.807	90.7569	-38.3996	238.897	57.7096	20.0889	250.832	69.6959	-2.50393	262.737	77.2917	-25.3604	240.255	32.5149	29.8382	250.685	41.1256	10.879	255.335	57.0153	-11.1141	214.787	44.7715	67.0267	201.331	34.5012	96.1299	186.406	60.4407	72.815	
192	1.6	147.147	49.7424	61.2203	148.174	48.3533	19.4941	175.921	42.3589	2.43005	197.121	22.8671	-2.51957	200.957	88.7226	9.63383	218.14	91.5176	-8.12153	235.164	97.1519	-32.7449	229.699	77.6884	10.4304	241.922	86.6429	-13.7905	256.828	93.8795	-38.9787	238.556	62.3115	15.9918	252.908	69.141	-1.62965	262.366	80.7042	-27.2404	236.892	36.899	27.1034	249.62	44.456	9.03016	258.729	55.2305	-9.16787	214.915	43.2305	65.4764	202.845	36.9683	92.8123	182.746	61.8918	76.8498	
193	1.60833	146.709	46.9459	64.0179	150.287	49.7429	19.6123	169.265	42.5207	1.18141	196.708	24.4785	-3.2571	198.386	88.5458	11.7106	213.861	95.7813	-9.51204	230.007	100.934	-34.0884	225.657	81.4226	8.69931	237.246	89.1054	-11.6506	252.289	95.6667	-38.7311	236.251	61.135	19.4644	248.663	74.8406	-5.10334	261.425	83.5905	-27.6172	239.116	33.883	28.4936	250.106	46.428	6.87099	258.02	58.5032	-12.8304	218.812	45.7213	63.8903	205.577	34.3696	96.5228	182.846	61.8801	76.9698	
194	1.61667	143.989	49.9826	62.6172	146.886	50.8001	19.5967	170.842	45.4606	-1.10069	193.844	27.1114	-2.71057	200.841	90.604	9.09488	212.941	98.8564	-11.6525	229.202	99.4582	-31.5859	226.588	82.9987	8.3837	239.489	90.1411	-13.8637	251.82	98.0249	-39.2673	235.136	64.125	16.1644	248.433	74.145	-4.18561	259.957	82.1009	-25.3943	235.077	41.2942	24.4148	246.902	46.0818	9.33754	251.347	62.4006	-10.1643	214.817	47.1256	61.7036	204.784	37.6437	94.2667	182.91	65.6276	74.3698	
195	1.625	146.652	51.4527	61.4043	148.293	51.3415	20.852	167.981	45.2257	1.40099	192.576	29.2239	0.543106	197.426	93.2105	7.58605	209.185	102.544	-12.6834	224.041	107.886	-36.5078	220.783	87.5085	7.38941	234.283	95.1115	-15.9447	249.512	98.8693	-38.9407	234.754	66.2463	13.8032	245.529	77.2748	-4.96756	256.262	87.3887	-27.5892	235.602	42.9261	23.6992	246.176	48.8702	7.83557	250.235	68.4609	-13.4075	209.857	48.7109	62.9717	203.255	37.6737	92.0518	181.954	64.1783	74.5441	
196	1.63333	143.558	50.8828	61.4269	145.847	52.0064	20.3688	166.452	46.2805	1.17091	191.398	29.8437	-4.49865	193.739	97.4872	6.66937	205.404	104.296	-13.8014	218.992	110.268	-36.0843	219.116	89.5537	4.92863	231.789	98.3701	-17.6622	246.002	105.799	-44.9669	229.24	72.1881	13.6305	244.114	81.7312	-7.03962	253.878	90.4388	-28.972	230.56	46.4722	23.2073	244.124	55.7233	2.61343	252.314	69.4121	-11.1275	215.031	51.6523	61.2585	202.22	37.7741	93.2499	180.988	65.8723	72.6025	
197	1.64167	141.086	50.183	62.031	143.213	54.046	18.2124	165.431	49.8804	-1.9568	187.148	32.8532	-3.58408	188.668	97.5269	7.36194	203.224	107.153	-16.5825	216.503	109.003	-35.4283	211.973	91.8184	7.59031	224.309	101.072	-15.9796	241.631	108.607	-47.0404	224.845	75.6672	12.1351	240.55	86.1225	-10.2879	246.154	96.0003	-29.9134	232.523	46.9242	23.7611	240.629	59.8376	1.94333	244.308	74.0562	-14.969	209.985	54.1035	58.6402	197.211	41.9738	92.3401	175.987	70.7824	72.6712	
